<svg width="60" height="60" viewBox="0 0 60 60" fill="none" xmlns="http://www.w3.org/2000/svg">
<path d="M51.2137 8.78628C39.4987 -2.92876 20.5013 -2.92876 8.78628 8.78628C-2.92876 20.5013 -2.92876 39.4987 8.78628 51.2137C20.5013 62.9288 39.4987 62.9288 51.2137 51.2137C62.9288 39.4987 62.9288 20.5013 51.2137 8.78628ZM41.2718 37.9156H41.2084C41.2114 38.3488 41.1282 38.7783 40.9638 39.1792C40.7994 39.58 40.5569 39.9442 40.2505 40.2505C39.9442 40.5569 39.58 40.7994 39.1792 40.9638C38.7783 41.1282 38.3488 41.2114 37.9156 41.2084H22.0844C21.6512 41.2114 21.2217 41.1282 20.8208 40.9638C20.42 40.7994 20.0558 40.5569 19.7495 40.2505C19.4431 39.9442 19.2007 39.58 19.0362 39.1792C18.8718 38.7783 18.7886 38.3488 18.7916 37.9156V22.0844C18.7886 21.6512 18.8718 21.2217 19.0362 20.8208C19.2007 20.42 19.4431 20.0558 19.7495 19.7495C20.0558 19.4431 20.42 19.2007 20.8208 19.0362C21.2217 18.8718 21.6512 18.7886 22.0844 18.7916H37.9789C38.4121 18.7886 38.8417 18.8718 39.2425 19.0362C39.6433 19.2007 40.0075 19.4431 40.3139 19.7495C40.6202 20.0558 40.8627 20.42 41.0271 20.8208C41.1916 21.2217 41.2747 21.6512 41.2718 22.0844V37.9156Z" fill="#FFAF3E"/>
</svg>
