<svg width="86" height="42" viewBox="0 0 86 42" fill="none" xmlns="http://www.w3.org/2000/svg">
<g clip-path="url(#clip0)">
<path d="M86 42C80.5168 42 77.7232 40.0771 75.4058 38.5343C73.4434 37.2285 72.0293 36.2857 68.8375 36.2857C65.6457 36.2857 64.2201 37.2285 62.2692 38.5343C59.9605 40.0771 57.0746 42 51.675 42C46.2755 42 43.3983 40.0771 41.0809 38.5343C39.1213 37.2285 37.7044 36.2857 34.5126 36.2857C31.3207 36.2857 29.8951 37.2285 27.9471 38.5343C25.6384 40.0771 22.7525 42 17.353 42C11.9534 42 8.98383 40.0771 6.6751 38.5343C4.70114 37.2285 3.1745 36.2857 0 36.2857V29.1428C5.48322 29.1428 8.36913 31.0657 10.6779 32.6085C12.6403 33.9143 14.1034 34.8571 17.2923 34.8571C20.4813 34.8571 21.9329 33.9143 23.8953 32.6085C26.204 31.0657 29.1101 29.1428 34.501 29.1428C39.8919 29.1428 42.7836 31.0657 45.1009 32.6085C47.0634 33.9143 48.4832 34.8571 51.6721 34.8571C54.8611 34.8571 56.2896 33.9143 58.2405 32.6085C60.5492 31.0657 63.4351 29.1428 68.8375 29.1428C74.2399 29.1428 77.1143 31.0657 79.4317 32.6085C81.3825 33.9143 82.8255 34.8571 86 34.8571V42Z" fill="#FFAF3E"/>
<path d="M86 27.4286C80.5168 27.4286 77.7232 25.5057 75.4058 23.9628C73.4434 22.6571 72.0293 21.7143 68.8375 21.7143C65.6457 21.7143 64.2201 22.6571 62.2692 23.9628C59.9605 25.5057 57.0746 27.4286 51.675 27.4286C46.2755 27.4286 43.3983 25.5057 41.0809 23.9628C39.1213 22.6571 37.7044 21.7143 34.5126 21.7143C31.3207 21.7143 29.8951 22.6571 27.9471 23.9628C25.6384 25.5057 22.7525 27.4286 17.353 27.4286C11.9534 27.4286 8.98383 25.5057 6.6751 23.9628C4.70114 22.6571 3.1745 21.7143 0 21.7143V14.5714C5.48322 14.5714 8.36913 16.4943 10.6779 18.0371C12.6403 19.3428 14.1034 20.2857 17.2923 20.2857C20.4813 20.2857 21.9329 19.3428 23.8953 18.0371C26.204 16.4943 29.1101 14.5714 34.501 14.5714C39.8919 14.5714 42.7836 16.4943 45.1009 18.0371C47.0634 19.3428 48.4832 20.2857 51.6721 20.2857C54.8611 20.2857 56.2896 19.3428 58.2405 18.0371C60.5492 16.4943 63.4351 14.5714 68.8375 14.5714C74.2399 14.5714 77.1143 16.4943 79.4317 18.0371C81.3825 19.3428 82.8255 20.2857 86 20.2857V27.4286Z" fill="#FFAF3E"/>
<path d="M86 12.8571C80.5168 12.8571 77.7232 10.9371 75.4058 9.39143C73.4434 8.08572 72.0293 7.14286 68.8375 7.14286C65.6457 7.14286 64.2201 8.08572 62.2692 9.39143C59.9605 10.9371 57.0746 12.8571 51.675 12.8571C46.2755 12.8571 43.3983 10.9371 41.0809 9.39143C39.1213 8.08572 37.7044 7.14286 34.5126 7.14286C31.3207 7.14286 29.8951 8.08572 27.9471 9.39143C25.6384 10.9371 22.7525 12.8571 17.353 12.8571C11.9534 12.8571 8.98383 10.9371 6.6751 9.39143C4.70114 8.08572 3.1745 7.14286 0 7.14286V0C5.48322 0 8.36913 1.92 10.6779 3.46571C12.6518 4.77143 14.115 5.71429 17.3154 5.71429C20.5159 5.71429 21.9329 4.77143 23.8953 3.46571C26.204 1.92 29.1101 0 34.501 0C39.8919 0 42.7836 1.92 45.1009 3.46571C47.0634 4.77143 48.4832 5.71429 51.6721 5.71429C54.8611 5.71429 56.2896 4.77143 58.2405 3.46571C60.5492 1.92 63.4351 0 68.8375 0C74.2399 0 77.1143 1.92 79.4317 3.46571C81.3825 4.77143 82.8255 5.71429 86 5.71429V12.8571Z" fill="#FFAF3E"/>
</g>
<defs>
<clipPath id="clip0">
<rect width="86" height="42" fill="white"/>
</clipPath>
</defs>
</svg>
