<svg width="59" height="59" viewBox="0 0 59 59" fill="none" xmlns="http://www.w3.org/2000/svg">
<g clip-path="url(#clip0)">
<path d="M59 28.3061C58.8257 20.6462 55.6238 13.3672 50.095 8.06228C44.5662 2.7573 37.1608 -0.141619 29.4994 -5.33587e-05C21.8383 -0.141311 14.4332 2.75775 8.90458 8.06269C3.37601 13.3676 0.174257 20.6464 0 28.3061V28.3545C0.0203262 32.2418 0.85446 36.0817 2.44871 39.6271C4.04295 43.1726 6.36199 46.3449 9.25653 48.94V56.0718C9.25416 56.7404 9.48093 57.3895 9.89907 57.9112C10.3172 58.4329 10.9015 58.7956 11.5545 58.9389C11.7498 58.9791 11.9487 58.9996 12.148 58.9999C12.6877 58.9994 13.2164 58.8473 13.6739 58.5609L19.4062 54.9806C22.6324 56.1112 26.0267 56.6874 29.4453 56.6849H29.4879C29.6781 56.6849 29.8659 56.6849 30.0549 56.6849C37.6196 56.6797 44.8822 53.7164 50.2908 48.4282C55.6995 43.14 58.8252 35.9464 59 28.3845V28.3061ZM15.64 22.5444C15.6382 23.0016 15.4552 23.4395 15.1312 23.7622C14.8072 24.0848 14.3686 24.266 13.9113 24.266H13.9021C13.6748 24.2651 13.4499 24.2194 13.2403 24.1315C13.0306 24.0435 12.8404 23.9151 12.6805 23.7536C12.5206 23.5921 12.3941 23.4006 12.3083 23.1902C12.2224 22.9797 12.1789 22.7544 12.1803 22.5271C12.1898 20.669 12.9346 18.8903 14.2519 17.5797C15.5693 16.2692 17.352 15.5335 19.2103 15.5335H19.246C21.1103 15.543 22.8945 16.2925 24.2061 17.6172C25.5178 18.9419 26.2495 20.7333 26.2403 22.5974C26.2384 23.0546 26.0555 23.4925 25.7315 23.8152C25.4075 24.1378 24.9689 24.319 24.5116 24.319H24.5024C24.2751 24.3181 24.0502 24.2724 23.8406 24.1845C23.6309 24.0965 23.4407 23.9681 23.2808 23.8066C23.1209 23.6451 22.9944 23.4536 22.9085 23.2432C22.8227 23.0327 22.7792 22.8074 22.7806 22.5801C22.8059 22.0975 22.7329 21.6147 22.5661 21.161C22.3994 20.7074 22.1423 20.2923 21.8104 19.9409C21.4785 19.5895 21.0788 19.3091 20.6354 19.1166C20.192 18.9242 19.7141 18.8237 19.2308 18.8213C18.7474 18.8189 18.2686 18.9145 17.8232 19.1025C17.3779 19.2905 16.9754 19.5669 16.64 19.915C16.3047 20.2631 16.0434 20.6756 15.8721 21.1275C15.7008 21.5795 15.623 22.0615 15.6434 22.5444H15.64ZM37.925 39.9655C35.6964 42.1851 32.6772 43.4287 29.5317 43.4226H29.4695C27.9026 43.4147 26.3526 43.0983 24.908 42.4914C23.4634 41.8845 22.1525 40.999 21.0502 39.8855C19.9479 38.7719 19.0758 37.4522 18.4837 36.0016C17.8915 34.551 17.591 32.998 17.5992 31.4313C17.601 30.974 17.7839 30.5362 18.1079 30.2135C18.4319 29.8908 18.8706 29.7097 19.3278 29.7097H19.3371C19.5643 29.7107 19.789 29.7566 19.9985 29.8445C20.208 29.9325 20.3981 30.061 20.5579 30.2225C20.7177 30.384 20.8441 30.5754 20.9298 30.7858C21.0156 30.9961 21.059 31.2214 21.0577 31.4486C21.0466 33.6954 21.9286 35.8546 23.5095 37.4514C25.0904 39.0481 27.2408 39.9516 29.4879 39.9632H29.5317C31.7713 39.963 33.9196 39.0761 35.5071 37.4965C37.0946 35.9169 37.9921 33.7732 38.0034 31.5338C38.0052 31.0766 38.1882 30.6387 38.5122 30.3161C38.8362 29.9934 39.2748 29.8122 39.7321 29.8122H39.7413C39.9686 29.8131 40.1935 29.8589 40.4031 29.9468C40.6127 30.0347 40.8029 30.1631 40.9629 30.3246C41.1228 30.4861 41.2493 30.6776 41.3351 30.8881C41.421 31.0985 41.4644 31.3238 41.4631 31.5511C41.4587 33.1179 41.1438 34.6682 40.5365 36.1125C39.9292 37.5568 39.0416 38.8664 37.925 39.9655ZM45.1601 24.4193H45.1521C44.9242 24.4193 44.6986 24.3742 44.4881 24.2867C44.2777 24.1992 44.0867 24.0709 43.926 23.9093C43.7654 23.7477 43.6383 23.5559 43.552 23.345C43.4657 23.1341 43.422 22.9082 43.4234 22.6804C43.4271 21.7345 43.0555 20.8258 42.3901 20.1536C41.7246 19.4813 40.8197 19.1004 39.8738 19.0943H39.8554C38.9117 19.0943 38.0063 19.4676 37.3369 20.1328C36.6675 20.798 36.2886 21.701 36.2828 22.6447C36.2809 23.1019 36.098 23.5398 35.774 23.8624C35.45 24.1851 35.0114 24.3663 34.5541 24.3663H34.5449C34.3176 24.3654 34.0927 24.3196 33.8831 24.2317C33.6734 24.1438 33.4832 24.0154 33.3233 23.8539C33.1634 23.6924 33.0369 23.5009 32.951 23.2904C32.8652 23.08 32.8217 22.8547 32.8231 22.6274C32.8347 20.7699 33.5802 18.9924 34.8971 17.6823C36.214 16.3722 37.9954 15.6359 39.8531 15.6338H39.8888C40.8129 15.6374 41.7272 15.8232 42.5794 16.1804C43.4316 16.5377 44.205 17.0594 44.8554 17.7158C45.5057 18.3722 46.0203 19.1504 46.3696 20.0058C46.7189 20.8613 46.8961 21.7771 46.8911 22.7011C46.8884 23.1581 46.7047 23.5955 46.3804 23.9175C46.056 24.2395 45.6172 24.4199 45.1601 24.4193Z" fill="#FFAF3E"/>
</g>
<defs>
<clipPath id="clip0">
<rect width="59" height="59" fill="white"/>
</clipPath>
</defs>
</svg>
