<svg display="none" xmlns="http://www.w3.org/2000/svg">
    
    <symbol id="facebook" viewBox="0 0 98.6 98.6">
        <g>
            <path d="M49.3,0C22.1,0,0,22.1,0,49.3s22.1,49.3,49.3,49.3s49.3-22.1,49.3-49.3S76.5,0,49.3,0z M63.8,28.3c-2.3,0-4.7,0-7,0
                c-1.5-0.1-3,1-3.3,2.5c0,2.6,0,5.1,0,7.7c3.4,0,6.9,0,10.3,0c-0.3,3.7-0.7,7.4-1.3,11.1c-3,0-6.1,0-9.1,0c0,11,0,21.9,0,32.8
                c-4.5,0-9,0-13.6,0c-0.1-11,0-21.9,0-32.9c-2.2,0-4.4,0-6.6,0c0-3.7,0-7.4,0-11c2.2,0,4.4,0,6.6,0c0.1-3.6-0.1-7.2,0.1-10.7
                c0.2-2.9,1.3-5.7,3.4-7.7c2.6-2.4,6.2-3.3,9.6-3.4c3.6,0,7.3,0,10.9,0C63.8,20.6,63.8,24.4,63.8,28.3z"/>
        </g>
    </symbol>

    <symbol id="instagram" viewBox="0 0 98.6 98.6">
        <g>
            <path d="M62.2,24.5H36.2c-6.5,0-11.8,5.3-11.8,11.8v26.2c0,6.5,5.3,11.8,11.8,11.8h25.9c6.5,0,11.8-5.3,11.8-11.8V36.2
                C73.9,29.8,68.7,24.5,62.2,24.5z M49.2,65c-8.8,0-16-7.1-16-15.8s7.2-15.8,16-15.8s16,7.1,16,15.8S58,65,49.2,65z M65.5,36.5
                c-2.1,0-3.8-1.7-3.8-3.8s1.7-3.8,3.8-3.8c2.1,0,3.8,1.7,3.8,3.8S67.6,36.5,65.5,36.5z"/>
            <path d="M49.3,0C22.1,0,0,22.1,0,49.3s22.1,49.3,49.3,49.3s49.3-22.1,49.3-49.3S76.5,0,49.3,0z M79.8,62.4
                c0,9.7-7.9,17.6-17.6,17.6H36.2c-9.7,0-17.6-7.9-17.6-17.6V36.2c0-9.7,7.9-17.6,17.6-17.6h25.9c9.7,0,17.6,7.9,17.6,17.6V62.4z"/>
            <path d="M49.2,39.2c-5.6,0-10.1,4.5-10.1,10s4.6,10,10.1,10s10.1-4.5,10.1-10S54.8,39.2,49.2,39.2z"/>
        </g>
    </symbol>

    <symbol id="odnoklassniki" viewBox="0 0 98.6 98.6">
       <g>
	        <circle cx="49.9" cy="30.9" r="8.3"/>
	        <path d="M49.3,0C22.1,0,0,22.1,0,49.3s22.1,49.3,49.3,49.3s49.3-22.1,49.3-49.3S76.5,0,49.3,0z M49.9,14c9.3,0,16.9,7.6,16.9,16.9
                s-7.6,16.9-16.9,16.9s-16.9-7.6-16.9-16.9S40.5,14,49.9,14z M64.9,57.6c-3.6,2.3-8.5,3.2-11.8,3.5l2.7,2.7l10,10
                c1.5,1.5,1.5,4,0,5.5l-0.5,0.5c-1.5,1.5-4,1.5-5.5,0c-2.5-2.5-6.2-6.2-10-10l-10,10c-1.5,1.5-4,1.5-5.5,0L34,79.3
                c-1.5-1.5-1.5-4,0-5.5c2.5-2.5,6.2-6.2,10-10l2.7-2.7c-3.2-0.3-8.2-1.2-11.8-3.5c-4.2-2.7-6.1-4.3-4.5-7.7c1-1.9,3.6-3.5,7.1-0.7
                c4.8,3.7,12.4,3.7,12.4,3.7s7.6,0,12.4-3.7c3.5-2.8,6.2-1.2,7.1,0.7C71,53.2,69.2,54.9,64.9,57.6z"/>
        </g>
    </symbol>

    <symbol id="vk" viewBox="0 0 98.6 98.6">
       <g>
	        <path d="M49.3,0C22.1,0,0,22.1,0,49.3s22.1,49.3,49.3,49.3s49.3-22.1,49.3-49.3S76.5,0,49.3,0z M70.7,55.8c0.4,0.5,1.3,1.4,2.8,2.8
            h0l0,0l0,0l0.1,0.1c3.2,3,5.4,5.5,6.5,7.6c0.1,0.1,0.1,0.3,0.2,0.4c0.1,0.2,0.2,0.5,0.2,0.9c0.1,0.4,0.1,0.8,0,1.2
            c-0.1,0.3-0.4,0.7-0.9,0.9c-0.5,0.3-1.2,0.4-2,0.4L69,70.3c-0.5,0.1-1.2,0.1-1.9-0.2c-0.7-0.2-1.3-0.5-1.8-0.8L64.6,69
            c-0.7-0.5-1.5-1.2-2.4-2.2c-0.9-1-1.7-1.9-2.3-2.7s-1.3-1.4-2.1-2c-0.7-0.5-1.4-0.7-1.9-0.5c-0.1,0-0.2,0.1-0.3,0.1
            c-0.1,0.1-0.3,0.2-0.6,0.5c-0.3,0.3-0.5,0.6-0.7,1c-0.2,0.4-0.4,1-0.6,1.8c-0.2,0.8-0.2,1.7-0.2,2.7c0,0.3,0,0.7-0.1,0.9
            c-0.1,0.3-0.2,0.5-0.3,0.6l-0.1,0.2c-0.4,0.4-1,0.7-1.8,0.8h-3.9c-1.6,0.1-3.3-0.1-5-0.6c-1.7-0.5-3.2-1.1-4.5-1.8
            c-1.3-0.7-2.5-1.5-3.5-2.3c-1.1-0.8-1.9-1.4-2.4-2l-0.9-0.8c-0.2-0.2-0.5-0.6-0.9-1c-0.4-0.5-1.2-1.5-2.4-3.1
            c-1.2-1.6-2.4-3.3-3.6-5.2c-1.2-1.8-2.6-4.2-4.2-7.2c-1.6-3-3.1-6.1-4.5-9.3C15.1,36.6,15,36.3,15,36c0-0.2,0-0.4,0.1-0.5l0.1-0.2
            c0.3-0.4,1-0.7,1.9-0.7l9.4-0.1c0.3,0,0.5,0.1,0.8,0.2c0.3,0.1,0.4,0.2,0.5,0.3l0.2,0.1c0.4,0.3,0.6,0.6,0.8,1.1
            c0.5,1.1,1,2.3,1.6,3.5c0.6,1.2,1.1,2.2,1.4,2.8l0.5,1c0.7,1.4,1.3,2.6,1.9,3.6c0.6,1,1.2,1.8,1.7,2.3c0.5,0.6,1,1,1.4,1.3
            c0.5,0.3,0.8,0.5,1.2,0.5c0.3,0,0.6-0.1,0.9-0.2c0,0,0.1-0.1,0.2-0.2s0.2-0.3,0.4-0.8c0.2-0.4,0.4-0.9,0.5-1.6
            c0.1-0.7,0.2-1.6,0.3-2.8c0.1-1.2,0.1-2.6,0-4.3c0-0.9-0.1-1.7-0.3-2.5c-0.2-0.8-0.3-1.3-0.5-1.6L39.9,37c-0.6-0.8-1.5-1.3-2.9-1.5
            c-0.3,0-0.2-0.3,0.2-0.8c0.4-0.4,0.8-0.8,1.3-1c1.2-0.6,3.9-0.9,8.2-0.8c1.9,0,3.4,0.2,4.6,0.4c0.5,0.1,0.8,0.3,1.1,0.5
            c0.3,0.2,0.5,0.5,0.7,0.8c0.2,0.4,0.3,0.7,0.4,1.1c0.1,0.4,0.1,0.9,0.1,1.6c0,0.7,0,1.3,0,1.9c0,0.6-0.1,1.4-0.1,2.4
            c0,1-0.1,2-0.1,2.8c0,0.3,0,0.7,0,1.4c0,0.7,0,1.3,0,1.6c0,0.4,0.1,0.9,0.1,1.4c0.1,0.5,0.2,1,0.4,1.3c0.2,0.4,0.5,0.6,0.8,0.8
            c0.2,0,0.4,0.1,0.6,0.1c0.2,0,0.5-0.1,0.9-0.4c0.4-0.3,0.8-0.7,1.3-1.2c0.5-0.5,1.1-1.3,1.8-2.3c0.7-1,1.5-2.3,2.3-3.7
            c1.4-2.4,2.6-4.9,3.7-7.7c0.1-0.2,0.2-0.4,0.3-0.6c0.1-0.2,0.3-0.3,0.4-0.4l0.1-0.1c0,0,0.1-0.1,0.2-0.1c0.1,0,0.2-0.1,0.4-0.1
            c0.2,0,0.5,0,0.7,0l9.9-0.1c0.9-0.1,1.6-0.1,2.2,0.1c0.6,0.2,0.9,0.4,1.1,0.6l0.2,0.3c0.5,1.5-1.2,4.8-5.1,10.1
            c-0.5,0.7-1.3,1.7-2.2,2.9c-1.8,2.3-2.8,3.8-3.1,4.5C69.8,54,70,54.9,70.7,55.8z"/>
        </g>
    </symbol>

    <symbol id="youtube" viewBox="0 0 98.6 98.6">
       <g>
	       <g>
	            <polygon points="43.7,56.5 59,48.4 43.7,40.5 	"/>
	                <path d="M49.3,0C22.1,0,0,22.1,0,49.3s22.1,49.3,49.3,49.3s49.3-22.1,49.3-49.3S76.5,0,49.3,0z M76.8,60.8
                        c-0.7,4.2-2.7,6.4-6.9,6.9c-4.7,0.5-15.4,0.8-20.1,0.8c-4.9,0-14.8-0.2-19.7-0.6c-4.2-0.4-7.1-2.7-7.7-6.9
                        c-0.4-3.1-0.7-6.7-0.7-12.5c0-6.5,0.2-9.2,0.8-12.1c0.8-4.2,2.8-6.2,7.3-6.6c4.8-0.5,9.3-0.7,19.3-0.7c4.9,0,15.5,0.3,20.4,0.7
                        c4.3,0.4,6.7,3,7.2,7.2c0.4,2.9,0.7,7.1,0.7,11.6C77.5,56.2,76.8,60.8,76.8,60.8z"/>
            </g>
        </g>
    </symbol>

    <symbol id="clock" viewBox="0 0 32 32">
       <g>
	       <g clip-path="url(#clip0)">
            <path d="M15.58 0C6.97598 0 0.000976562 6.976 0.000976562 15.58C0.000976562 24.184 6.97598 31.16 15.58 31.16C24.184 31.16 31.159 24.183 31.159 15.58C31.159 6.976 24.185 0 15.58 0ZM15.58 28.16C8.64298 28.16 3.00098 22.517 3.00098 15.58C3.00098 8.643 8.64298 3 15.58 3C22.517 3 28.159 8.643 28.159 15.58C28.159 22.518 22.517 28.16 15.58 28.16Z" fill="#1A59EE"/>
            <path d="M22.151 14.5799H17.709C17.476 14.0829 17.076 13.6839 16.58 13.4509V6.13794C16.58 5.58594 16.134 5.13794 15.58 5.13794C15.027 5.13794 14.58 5.58594 14.58 6.13794V13.4509C13.779 13.8279 13.222 14.6359 13.222 15.5799C13.222 16.8829 14.278 17.9389 15.58 17.9389C16.524 17.9389 17.332 17.3799 17.709 16.5799H22.151C22.704 16.5799 23.151 16.1319 23.151 15.5799C23.151 15.0279 22.704 14.5799 22.151 14.5799Z" fill="#1A59EE"/>
            </g>
            <defs>
            <clipPath id="clip0">
            <rect width="31.16" height="31.16" fill="white"/>
            </clipPath>
            </defs>
        </g>
    </symbol>
    <symbol id="megafon" viewBox="0 0 174 162">
       <g>
	       <g style="mix-blend-mode:multiply" opacity="0.35">
            <g style="mix-blend-mode:multiply" opacity="0.35">
            <path d="M48.5449 119.182L45.2578 114.216L30.7442 123.781L33.3697 127.725C35.9741 122.449 42.2857 119.89 48.5449 119.182Z" fill="white"/>
            </g>
            <g style="mix-blend-mode:multiply" opacity="0.35">
            <path d="M125.725 86.9767C131.769 82.9769 125.891 63.4918 112.597 43.4556C99.3023 23.4194 83.6254 10.4193 77.5814 14.4192C71.5374 18.419 77.415 37.9041 90.7094 57.9403C104.004 77.9765 119.681 90.9765 125.725 86.9767Z" fill="white"/>
            </g>
            <g style="mix-blend-mode:multiply" opacity="0.35">
            <path d="M55.5924 111.877L55.4551 111.946L55.5924 111.877Z" fill="white"/>
            </g>
            <g style="mix-blend-mode:multiply" opacity="0.35">
            <path d="M27.8824 70.9524L28.2815 70.5801C28.1337 70.6874 27.9997 70.8124 27.8824 70.9524Z" fill="white"/>
            </g>
            <g style="mix-blend-mode:multiply" opacity="0.35">
            <path d="M55.4498 111.961L55.119 112.108C55.2329 112.068 55.3435 112.018 55.4498 111.961Z" fill="white"/>
            </g>
            <g style="mix-blend-mode:multiply" opacity="0.35">
            <path d="M54.3113 109.864C54.3113 109.864 54.3113 109.864 54.3113 109.837H54.2579L54.3113 109.864Z" fill="white"/>
            </g>
            <g style="mix-blend-mode:multiply" opacity="0.35">
            <path d="M29.5995 72.5738L29.6582 72.5204C29.6582 72.5204 29.6315 72.5204 29.6209 72.5204C29.6151 72.5387 29.608 72.5566 29.5995 72.5738Z" fill="white"/>
            </g>
            <g style="mix-blend-mode:multiply" opacity="0.35">
            <path d="M115.095 58.0939C115.095 56.1746 114.518 52.1576 110.947 46.751C107.376 41.3443 103.895 39.2467 102.136 38.4811C101.567 38.2335 100.945 38.1311 100.326 38.1833C99.7071 38.2355 99.1111 38.4405 98.5915 38.78C93.9704 41.7003 89.1345 44.2667 84.1252 46.4573C86.3193 50.649 88.7274 54.7256 91.3399 58.6708C94.2422 63.0816 97.398 67.3206 100.792 71.3667C104.742 67.6775 108.963 64.2891 113.42 61.2299C113.937 60.8856 114.36 60.4192 114.652 59.872C114.944 59.3249 115.097 58.714 115.095 58.0939Z" fill="white"/>
            </g>
            <g style="mix-blend-mode:multiply" opacity="0.35">
            <path d="M100.587 38.974C99.4106 39.4722 99.2898 41.423 99.6731 42.7183C100.629 45.7991 102.036 48.7219 103.848 51.392C105.57 54.014 107.602 56.6361 110.122 58.5239C110.825 59.1325 111.674 59.5498 112.585 59.7353C115.211 59.9975 114.602 56.5364 114.16 55.0156C113.247 52.2328 111.936 49.5959 110.269 47.1862C108.831 44.9412 107.122 42.8807 105.181 41.0507C104.267 40.1258 103.156 39.4179 101.931 38.9792C101.498 38.8178 101.021 38.816 100.587 38.974Z" fill="white"/>
            </g>
            <g style="mix-blend-mode:multiply" opacity="0.35">
            <path d="M113.503 58.3703C115.004 57.3813 113.471 52.4192 110.08 47.2872C106.689 42.1551 102.724 38.7966 101.223 39.7856C99.7225 40.7746 101.255 45.7366 104.646 50.8686C108.037 56.0007 112.002 59.3593 113.503 58.3703Z" fill="white"/>
            </g>
            <g style="mix-blend-mode:multiply" opacity="0.35">
            <path d="M46.3062 126.411L41.0601 129.869L46.905 138.714L52.1511 135.257L46.3062 126.411Z" fill="white"/>
            </g>
            <g style="mix-blend-mode:multiply" opacity="0.35">
            <path d="M50.64 134.946L46.0454 127.368L42.6166 129.623L42.4223 130.572L47.1166 137.678L50.5455 135.418L50.64 134.946Z" fill="white"/>
            </g>
            <g style="mix-blend-mode:multiply" opacity="0.35">
            <path d="M50.64 134.946L47.2164 137.201L42.6165 129.623L46.0454 127.368L50.64 134.946Z" fill="white"/>
            </g>
            <g style="mix-blend-mode:multiply" opacity="0.35">
            <path d="M45.4258 133.042C46.0081 132.321 46.8295 131.832 47.7414 131.663C47.4562 132.03 47.0988 132.335 46.6913 132.56C46.3036 132.799 45.8742 132.962 45.4258 133.042Z" fill="white"/>
            </g>
            </g>
            <path d="M31.4478 115.826L27.9875 121.039L51.9422 157.291C52.5835 158.258 53.5828 158.932 54.7209 159.164C55.859 159.396 57.0427 159.167 58.0123 158.528C64.8385 154.858 68.7189 140.699 65.1535 135.323L45.9509 106.261L31.4478 115.826Z" fill="white"/>
            <path d="M58.0228 158.528C57.0532 159.167 55.8694 159.396 54.7314 159.164C53.5933 158.932 52.594 158.258 51.9527 157.291L27.9875 121.039L42.501 111.473L61.7037 140.531C63.6052 143.405 64.2856 146.916 63.5953 150.291C62.905 153.666 60.9005 156.629 58.0228 158.528Z" fill="white"/>
            <path d="M45.7934 116.44L42.5115 111.473L27.9875 121.039L30.6129 124.982C33.2384 119.686 39.5395 117.147 45.7934 116.44Z" fill="white"/>
            <path d="M29.5207 117.766C27.4651 119.122 25.162 120.06 22.7433 120.526C20.3245 120.993 17.8374 120.979 15.4241 120.485C13.0107 119.991 10.7185 119.027 8.67834 117.648C6.63817 116.27 4.89005 114.503 3.53389 112.449L3.10331 111.799C1.74649 109.745 0.807906 107.445 0.341173 105.03C-0.12556 102.614 -0.111306 100.131 0.383121 97.7207C0.877548 95.3107 1.84246 93.0216 3.22277 90.984C4.60307 88.9465 6.37173 87.2004 8.42775 85.8456L29.5207 117.766Z" fill="#FFAF3E"/>
            <path d="M4.51056 87.9432C3.99163 88.2882 3.56619 88.756 3.27211 89.305C2.97802 89.8539 2.82444 90.467 2.82501 91.0896C2.85127 94.063 3.75968 100.047 9.18914 108.259C14.6186 116.471 19.7645 119.659 22.495 120.845C23.0676 121.089 23.6918 121.188 24.312 121.133C24.9322 121.078 25.5293 120.871 26.0499 120.53C67.0544 94.2518 124.179 86.7108 124.179 86.7108L99.211 48.9272L74.2429 11.1384C74.2429 11.1384 44.8324 60.6268 4.51056 87.9432Z" fill="#FFAF3E"/>
            <path d="M76.8788 82.1327C67.779 80.9161 58.5531 79.0859 49.8576 76.1125C43.0944 73.7999 36.3679 70.6167 31.1013 65.7292C23.0148 73.7422 14.0725 81.4615 4.51056 87.9432C3.99163 88.2882 3.56619 88.756 3.27211 89.305C2.97802 89.8539 2.82444 90.467 2.82501 91.0896C2.85127 94.063 3.75968 100.046 9.18914 108.259C14.6186 116.471 19.7645 119.659 22.495 120.844C23.0676 121.089 23.6918 121.188 24.312 121.133C24.9322 121.078 25.5293 120.871 26.0499 120.53C67.0544 94.2518 124.179 86.7108 124.179 86.7108L118.141 77.5704C105.271 82.8617 90.8096 83.9944 76.8788 82.1327Z" fill="#FFAF3E"/>
            <path d="M68.4196 99.6008C59.0782 97.9594 49.7578 94.9178 41.9077 89.4797C38.038 86.8613 34.6518 83.5931 31.8994 79.8201C29.6578 76.7028 28.1043 73.1459 27.3416 69.3844C20.2461 76.1768 12.6107 82.3834 4.51056 87.9432C3.99163 88.2882 3.56619 88.756 3.27211 89.305C2.97802 89.854 2.82444 90.467 2.82501 91.0896C2.85127 94.063 3.75968 100.047 9.18914 108.259C14.6186 116.471 19.7645 119.659 22.495 120.845C23.0676 121.089 23.6918 121.188 24.312 121.133C24.9322 121.078 25.5293 120.871 26.0499 120.53C39.8861 111.667 55.5548 104.934 70.2469 99.9049C69.6326 99.8105 69.013 99.7109 68.4196 99.6008Z" fill="#FFAF3E"/>
            <path d="M72.9879 9.0251C68.2306 11.0755 67.6372 18.821 69.1022 23.9183C72.6256 36.1475 78.3386 47.4537 85.3486 58.0625C92.1223 68.3146 100.13 78.6559 110.138 85.9767C112.942 88.0219 116.371 90.345 119.947 90.6491C130.57 91.5354 128.222 77.8431 126.453 71.7705C123.255 60.7894 117.558 50.4585 111.278 40.9563C105.538 32.2721 98.9853 23.8973 91.2139 16.9174C87.5382 13.6189 83.1485 10.2103 78.3071 8.88875C76.1385 8.31715 74.3847 8.42728 72.9879 9.0251Z" fill="white"/>
            <path d="M122.99 84.2475C129.034 80.2477 123.157 60.7626 109.862 40.7264C96.5679 20.6902 80.8911 7.69009 74.8471 11.6899C68.8031 15.6897 74.6807 35.1748 87.975 55.211C101.269 75.2473 116.946 88.2473 122.99 84.2475Z" fill="#FFAF3E"/>
            <path d="M48.4661 108.489C44.3231 106.219 38.5471 100.204 33.3434 92.3272C28.1398 84.4506 24.8842 76.7943 24.4169 72.1061C24.2436 70.3388 24.4694 69.0016 25.1362 68.2202C18.3054 74.7221 10.9697 80.6735 3.19786 86.0186C2.35801 86.5772 1.67026 87.3354 1.19642 88.2251C0.722571 89.1148 0.477467 90.1081 0.483128 91.1159C0.509383 94.2308 1.42305 100.765 7.23057 109.554C13.0381 118.343 18.6986 121.747 21.5551 122.974C22.483 123.377 23.4966 123.543 24.5047 123.458C25.5129 123.373 26.4842 123.039 27.3311 122.486C35.3158 117.447 43.6895 113.051 52.3728 109.339C51.3909 109.669 50.0414 109.339 48.4661 108.489Z" fill="white"/>
            <path d="M52.8461 109.135L52.7088 109.203L52.8461 109.135Z" fill="white"/>
            <path d="M25.1362 68.2097L25.5353 67.8374C25.3875 67.9447 25.2534 68.0698 25.1362 68.2097Z" fill="#FFAF3E"/>
            <path d="M52.7036 109.197L52.3728 109.344C52.4867 109.304 52.5973 109.255 52.7036 109.197Z" fill="#FFAF3E"/>
            <path d="M54.0793 106.046C53.2462 106.395 52.4113 106.745 51.5746 107.095C51.5746 107.095 51.5746 107.095 51.5746 107.121H51.5326C49.9153 107.241 43.1626 102.899 35.3178 91.0215C27.4729 79.1437 26.1339 71.2881 26.8638 69.8145C26.8638 69.8145 26.8638 69.783 26.8638 69.7778H26.9373C27.5989 69.152 28.2553 68.5262 28.9064 67.9004C27.5359 67.3393 26.4017 67.2763 25.5983 67.806L25.1992 68.1783C24.5323 68.9597 24.3066 70.2759 24.4798 72.0642C24.9472 76.7838 28.2132 84.4245 33.4064 92.2958C38.5996 100.167 44.3861 106.187 48.5291 108.458C50.1044 109.323 51.4486 109.638 52.4305 109.313L52.7613 109.166L52.8979 109.098C53.6698 108.584 54.0583 107.519 54.0793 106.046Z" fill="white"/>
            <path d="M51.565 107.142C51.565 107.142 51.565 107.142 51.565 107.116H51.5116L51.565 107.142Z" fill="#FFAF3E"/>
            <path d="M26.8533 69.8311L26.912 69.7777H26.8746C26.8689 69.796 26.8618 69.8139 26.8533 69.8311Z" fill="#FFAF3E"/>
            <path d="M112.349 55.3512C112.349 53.4319 111.771 49.4149 108.201 44.0083C104.63 38.6017 101.143 36.504 99.4001 35.7331C98.8301 35.4877 98.2081 35.387 97.5896 35.4401C96.9711 35.4931 96.3754 35.6983 95.8557 36.0373C91.2347 38.9576 86.3987 41.5241 81.3894 43.7146C83.5835 47.9064 85.9916 51.9829 88.6042 55.9281C91.5065 60.3389 94.6623 64.578 98.0559 68.624C101.996 64.9343 106.209 61.5458 110.658 58.4872C111.177 58.1448 111.604 57.6791 111.899 57.1318C112.194 56.5846 112.349 55.9728 112.349 55.3512Z" fill="white"/>
            <path d="M97.8248 36.2313C96.6486 36.7557 96.5278 38.6803 96.9111 39.9756C97.8755 43.0579 99.291 45.9808 101.112 48.6493C102.834 51.2713 104.866 53.8934 107.387 55.7812C108.09 56.3898 108.938 56.8071 109.849 56.9926C112.501 57.2548 111.866 53.7937 111.425 52.273C110.511 49.4901 109.201 46.8532 107.534 44.4436C106.095 42.1986 104.386 40.138 102.446 38.308C101.531 37.3832 100.42 36.6753 99.1953 36.2366C98.7543 36.0686 98.2671 36.0668 97.8248 36.2313Z" fill="#FFAF3E"/>
            <path d="M110.754 55.6252C112.254 54.6362 110.722 49.6741 107.331 44.5421C103.94 39.41 99.9747 36.0514 98.474 37.0404C96.9733 38.0294 98.5057 42.9915 101.897 48.1235C105.288 53.2556 109.253 56.6142 110.754 55.6252Z" fill="white"/>
            <path d="M43.5622 123.671L38.3161 127.129L44.161 135.975L49.4071 132.517L43.5622 123.671Z" fill="#FFAF3E"/>
            <path d="M47.8937 132.203L43.2939 124.625L39.8703 126.88L39.676 127.83L44.3704 134.935L47.7992 132.675L47.8937 132.203Z" fill="white"/>
            <path d="M47.8937 132.203L44.4701 134.458L39.8703 126.88L43.2939 124.625L47.8937 132.203Z" fill="white"/>
            <path d="M42.6901 130.315C43.2724 129.594 44.0938 129.105 45.0057 128.936C44.7204 129.303 44.3631 129.608 43.9555 129.833C43.5678 130.072 43.1385 130.235 42.6901 130.315Z" fill="white"/>
            <path d="M130.795 11.7992L136.682 10.462L128.49 25.8166L131.956 14.0332L126.091 15.3494L134.266 0.0209961L130.795 11.7992Z" fill="white"/>
            <path d="M151.022 14.6992L158.484 17.8981L129.719 34.4064L129.703 34.3855L150.528 18.0711L143.114 14.8985L143.104 14.8565L171.238 0.0524902L171.254 0.0787106L151.022 14.6992Z" fill="white"/>
            <path d="M153.28 36.934L157.449 43.8929L134.392 39.9179V39.8916L150.901 39.3777L146.753 32.466L146.774 32.4293L169.789 36.3938L169.784 36.4253L153.28 36.934Z" fill="white"/>
        </g>
    </symbol>
    <symbol id="sale" viewBox="0 0 270 155">
       <g>
	       <g clip-path="url(#clip0)">
            <path d="M244.82 103.38L174.17 97.41" stroke="white" stroke-width="9" stroke-linecap="round" stroke-linejoin="round"/>
            <path d="M264.95 105.08L261.53 104.79" stroke="white" stroke-width="9" stroke-linecap="round" stroke-linejoin="round"/>
            <path d="M154.53 0.0400401C165.848 0.383715 176.954 3.20667 187.062 8.30978C197.171 13.4129 206.036 20.6718 213.034 29.5746C220.031 38.4774 224.99 48.8071 227.56 59.8351C230.131 70.8632 230.25 82.3209 227.91 93.4L256.4 129.4C256.789 129.892 257.025 130.488 257.079 131.114C257.132 131.739 257 132.366 256.699 132.917C256.399 133.468 255.943 133.919 255.388 134.213C254.834 134.507 254.205 134.631 253.58 134.57L208.72 130.15C199.895 139.605 188.841 146.696 176.568 150.776C164.296 154.855 151.196 155.793 138.467 153.503C125.739 151.212 113.787 145.768 103.706 137.666C93.6251 129.564 85.7361 119.065 80.7604 107.127C75.7848 95.1895 73.8815 82.195 75.2245 69.3318C76.5675 56.4687 81.1139 44.1476 88.4481 33.4952C95.7823 22.8428 105.67 14.1991 117.207 8.35471C128.744 2.51027 141.563 -0.348439 154.49 0.0400401H154.53Z" fill="#FFAF3E"/>
            <path d="M97.9999 24.02L47.3899 19.75" stroke="white" stroke-width="12" stroke-linecap="round" stroke-linejoin="round"/>
            <path d="M80 58L7 51" stroke="white" stroke-width="4" stroke-linecap="round" stroke-linejoin="round"/>
            <path d="M101.865 69.45C98.7052 69.45 96.0852 68.41 94.0052 66.33C91.9452 64.23 90.9152 61.62 90.9152 58.5C90.9152 55.38 91.9452 52.78 94.0052 50.7C96.0852 48.6 98.7052 47.55 101.865 47.55C103.765 47.55 105.525 48 107.145 48.9C108.765 49.8 110.035 51.01 110.955 52.53L106.305 55.2C105.905 54.46 105.305 53.88 104.505 53.46C103.725 53.02 102.845 52.8 101.865 52.8C100.185 52.8 98.8252 53.33 97.7852 54.39C96.7652 55.43 96.2552 56.8 96.2552 58.5C96.2552 60.2 96.7652 61.58 97.7852 62.64C98.8252 63.68 100.185 64.2 101.865 64.2C102.845 64.2 103.725 63.99 104.505 63.57C105.305 63.13 105.905 62.53 106.305 61.77L110.955 64.47C110.035 66.01 108.765 67.23 107.145 68.13C105.545 69.01 103.785 69.45 101.865 69.45ZM130.278 69H124.278L118.248 59.61V69H112.878V48H118.248V56.82L123.978 48H129.978L123.318 58.2L130.278 69ZM143.383 69V58.44L135.973 69H131.803V48H137.173V58.56L144.583 48H148.723V69H143.383ZM168.967 63.81H171.217V73.02H165.877V69H156.067V73.02H150.697V63.81H152.917C153.877 62.27 154.357 60.05 154.357 57.15V48H168.967V63.81ZM158.497 63.81H163.627V52.98H159.697V57.21C159.697 60.01 159.297 62.21 158.497 63.81ZM190.805 69H184.805L178.775 59.61V69H173.405V48H178.775V56.82L184.505 48H190.505L183.845 58.2L190.805 69ZM203.911 69V58.44L196.501 69H192.331V48H197.701V58.56L205.111 48H209.251V69H203.911ZM114.651 100.81H116.901V110.02H111.561V106H101.751V110.02H96.3811V100.81H98.6011C99.5611 99.27 100.041 97.05 100.041 94.15V85H114.651V100.81ZM104.181 100.81H109.311V89.98H105.381V94.21C105.381 97.01 104.981 99.21 104.181 100.81ZM136.796 103.3C134.676 105.4 132.076 106.45 128.996 106.45C125.916 106.45 123.306 105.4 121.166 103.3C119.046 101.18 117.986 98.58 117.986 95.5C117.986 92.42 119.046 89.83 121.166 87.73C123.306 85.61 125.916 84.55 128.996 84.55C132.076 84.55 134.676 85.61 136.796 87.73C138.936 89.83 140.006 92.42 140.006 95.5C140.006 98.58 138.936 101.18 136.796 103.3ZM124.946 99.61C126.026 100.67 127.376 101.2 128.996 101.2C130.616 101.2 131.966 100.67 133.046 99.61C134.126 98.53 134.666 97.16 134.666 95.5C134.666 93.84 134.126 92.48 133.046 91.42C131.966 90.34 130.616 89.8 128.996 89.8C127.376 89.8 126.026 90.34 124.946 91.42C123.866 92.48 123.326 93.84 123.326 95.5C123.326 97.16 123.866 98.53 124.946 99.61ZM147.674 85H161.894V89.44L155.324 106H149.534L155.774 90.19H147.674V85ZM177.751 103.48C176.231 105.46 174.101 106.45 171.361 106.45C168.621 106.45 166.481 105.46 164.941 103.48C163.421 101.48 162.661 98.82 162.661 95.5C162.661 92.18 163.421 89.53 164.941 87.55C166.481 85.55 168.621 84.55 171.361 84.55C174.101 84.55 176.231 85.55 177.751 87.55C179.291 89.53 180.061 92.18 180.061 95.5C180.061 98.82 179.291 101.48 177.751 103.48ZM168.031 95.5C168.031 99.32 169.141 101.23 171.361 101.23C173.581 101.23 174.691 99.32 174.691 95.5C174.691 91.68 173.581 89.77 171.361 89.77C169.141 89.77 168.031 91.68 168.031 95.5ZM186.792 95.32C185.232 95.32 183.922 94.8 182.862 93.76C181.802 92.7 181.272 91.42 181.272 89.92C181.272 88.42 181.802 87.15 182.862 86.11C183.922 85.07 185.232 84.55 186.792 84.55C188.352 84.55 189.652 85.07 190.692 86.11C191.732 87.15 192.252 88.42 192.252 89.92C192.252 91.44 191.722 92.72 190.662 93.76C189.622 94.8 188.332 95.32 186.792 95.32ZM184.392 102.7L198.192 87.7L200.292 88.9L186.462 103.87L184.392 102.7ZM186.762 91.51C187.222 91.51 187.592 91.36 187.872 91.06C188.172 90.74 188.322 90.36 188.322 89.92C188.322 89.48 188.172 89.11 187.872 88.81C187.592 88.51 187.222 88.36 186.762 88.36C186.322 88.36 185.952 88.51 185.652 88.81C185.372 89.11 185.232 89.48 185.232 89.92C185.232 90.38 185.372 90.76 185.652 91.06C185.952 91.36 186.322 91.51 186.762 91.51ZM198.402 106.42C196.822 106.42 195.502 105.9 194.442 104.86C193.402 103.82 192.882 102.55 192.882 101.05C192.882 99.53 193.402 98.25 194.442 97.21C195.502 96.17 196.822 95.65 198.402 95.65C199.962 95.65 201.262 96.18 202.302 97.24C203.342 98.28 203.862 99.55 203.862 101.05C203.862 102.55 203.332 103.82 202.272 104.86C201.232 105.9 199.942 106.42 198.402 106.42ZM197.262 102.16C197.562 102.46 197.932 102.61 198.372 102.61C198.812 102.61 199.172 102.46 199.452 102.16C199.752 101.84 199.902 101.47 199.902 101.05C199.902 100.59 199.752 100.21 199.452 99.91C199.172 99.61 198.812 99.46 198.372 99.46C197.932 99.46 197.562 99.61 197.262 99.91C196.982 100.21 196.842 100.59 196.842 101.05C196.842 101.49 196.982 101.86 197.262 102.16Z" fill="white"/>
            </g>
            <defs>
            <clipPath id="clip0">
            <rect width="269.45" height="154.74" fill="white" transform="matrix(-1 0 0 1 269.45 0)"/>
            </clipPath>
            </defs>
        </g>
    </symbol>
</svg>